<svg width="24" height="24" viewBox="0 0 24 24" fill="none" xmlns="http://www.w3.org/2000/svg">
<path d="M16 10.5L20 6.5L16 2.5H7L3 6.5L7 10.5H16ZM15.5 23.5H7.5L6 16L8.5 13.5H14.5L17 16L15.5 23.5Z" fill="#3459E6"/>
<path d="M7.1 21.5L7.5 23.5H15.5L15.9 21.5H7.1ZM3 6.5L7 10.5H16L20 6.5H18L15.5 9H7.5L5 6.5H3Z" fill="#3459E6"/>
<path d="M10.5 7L9 8L7.5 7V5.5L9 4.5L10.5 5.5V7ZM12.5 7L14 8L15.5 7V5.5L14 4.5L12.5 5.5V7Z" fill="#3459E6"/>
<path d="M16 10.5L20 6.5L16 2.5H7L3 6.5L7 10.5H16Z" stroke="white" stroke-miterlimit="10" stroke-linecap="round" stroke-linejoin="round"/>
<path d="M11.5 0.5V2.5M11.5 10.5V13.5M7.1 21.5H15.9M10.5 7L9 8L7.5 7V5.5L9 4.5L10.5 5.5V7ZM12.5 7L14 8L15.5 7V5.5L14 4.5L12.5 5.5V7ZM15.5 23.5H7.5L6 16L8.5 13.5H14.5L17 16L15.5 23.5Z" stroke="white" stroke-miterlimit="10" stroke-linecap="round" stroke-linejoin="round"/>
<path d="M2.5 16L3 19L6.4 18M2.5 16L0.5 14V12.5M2.5 16L4.5 14V12.5M20.5 16L20 19L16.6 17.9M20.5 16L22.5 14V12.5M20.5 16L18.5 14V12.5" stroke="white" stroke-miterlimit="10" stroke-linecap="round" stroke-linejoin="round"/>
</svg>
