<svg width="816" height="256" viewBox="0 0 816 256" fill="none" xmlns="http://www.w3.org/2000/svg">
<path d="M301.08 107.68C299 107.68 297.2 106.96 295.68 105.52C294.16 104.08 293.4 102.12 293.4 99.64C293.4 97.16 294.16 95.2 295.68 93.76C297.2 92.32 299 91.6 301.08 91.6C303.24 91.6 305.04 92.32 306.48 93.76C308 95.2 308.76 97.16 308.76 99.64C308.76 102.12 308 104.08 306.48 105.52C305.04 106.96 303.24 107.68 301.08 107.68ZM298.56 124.6H282.48V116.32H308.4V150.52C308.4 156.04 309.16 159.76 310.68 161.68C312.2 163.52 314.48 164.44 317.52 164.44C319.84 164.44 321.96 164.16 323.88 163.6C325.88 163.04 327.44 162.44 328.56 161.8L330 170.2C329.52 170.44 328.84 170.76 327.96 171.16C327.08 171.48 326.04 171.8 324.84 172.12C323.72 172.44 322.44 172.72 321 172.96C319.64 173.2 318.2 173.32 316.68 173.32C313.16 173.32 310.24 172.84 307.92 171.88C305.6 170.92 303.72 169.48 302.28 167.56C300.92 165.64 299.96 163.28 299.4 160.48C298.84 157.6 298.56 154.28 298.56 150.52V124.6Z" fill="black"/>
<path d="M361.68 96.88C365.92 96.88 369.76 97.36 373.2 98.32C376.64 99.28 379.6 100.76 382.08 102.76C384.56 104.76 386.44 107.32 387.72 110.44C389.08 113.48 389.76 117.08 389.76 121.24C389.76 125.56 388.88 129.48 387.12 133C385.36 136.52 382.44 139.2 378.36 141.04C379.72 143.12 381.16 145.44 382.68 148C384.2 150.48 385.68 153.12 387.12 155.92C388.56 158.64 389.92 161.4 391.2 164.2C392.56 166.92 393.72 169.52 394.68 172H379.2C377.36 167.2 375.2 162.6 372.72 158.2C370.32 153.72 367.72 149.2 364.92 144.64H357.24V172H342.48V98.8C343.92 98.48 345.48 98.2 347.16 97.96C348.92 97.64 350.68 97.44 352.44 97.36C354.2 97.2 355.88 97.08 357.48 97C359.08 96.92 360.48 96.88 361.68 96.88ZM374.76 121.12C374.76 117.2 373.56 114.32 371.16 112.48C368.76 110.64 365.6 109.72 361.68 109.72C361.12 109.72 360.44 109.76 359.64 109.84C358.84 109.84 358.04 109.92 357.24 110.08V132.4H360.48C365.52 132.4 369.16 131.44 371.4 129.52C373.64 127.52 374.76 124.72 374.76 121.12ZM414.24 134.8C414.24 138.4 414.36 141.8 414.6 145C414.92 148.12 415.48 150.84 416.28 153.16C417.16 155.48 418.36 157.32 419.88 158.68C421.4 160.04 423.44 160.72 426 160.72C428.48 160.72 430.48 160.04 432 158.68C433.6 157.32 434.8 155.48 435.6 153.16C436.48 150.76 437.04 148 437.28 144.88C437.6 141.76 437.76 138.4 437.76 134.8C437.76 131.2 437.6 127.84 437.28 124.72C437.04 121.52 436.48 118.76 435.6 116.44C434.8 114.12 433.64 112.28 432.12 110.92C430.6 109.56 428.56 108.88 426 108.88C423.44 108.88 421.4 109.56 419.88 110.92C418.36 112.28 417.16 114.16 416.28 116.56C415.48 118.88 414.92 121.6 414.6 124.72C414.36 127.84 414.24 131.2 414.24 134.8ZM399.24 134.8C399.24 122 401.6 112.36 406.32 105.88C411.04 99.32 417.6 96.04 426 96.04C434.72 96.04 441.36 99.32 445.92 105.88C450.48 112.36 452.76 122 452.76 134.8C452.76 147.6 450.44 157.28 445.8 163.84C441.16 170.32 434.6 173.56 426.12 173.56C417.4 173.56 410.72 170.32 406.08 163.84C401.52 157.28 399.24 147.6 399.24 134.8ZM512.28 149.56C512.28 154.04 511.52 157.8 510 160.84C508.48 163.8 506.4 166.2 503.76 168.04C501.2 169.8 498.12 171.08 494.52 171.88C491 172.6 487.2 172.96 483.12 172.96C479.84 172.96 476.44 172.76 472.92 172.36C469.4 172.04 465.92 171.52 462.48 170.8V98.68C465.28 98.2 468.36 97.8 471.72 97.48C475.08 97.08 478.4 96.88 481.68 96.88C487.28 96.88 491.84 97.48 495.36 98.68C498.88 99.8 501.64 101.32 503.64 103.24C505.64 105.08 507 107.16 507.72 109.48C508.44 111.8 508.8 114.12 508.8 116.44C508.8 119.96 507.92 123.08 506.16 125.8C504.48 128.52 502.2 130.68 499.32 132.28C504.36 134.12 507.76 136.6 509.52 139.72C511.36 142.84 512.28 146.12 512.28 149.56ZM477.24 139.48V159.64C478.28 159.8 479.4 159.92 480.6 160C481.88 160.08 483.12 160.12 484.32 160.12C486 160.12 487.64 160 489.24 159.76C490.84 159.44 492.24 158.92 493.44 158.2C494.72 157.4 495.76 156.32 496.56 154.96C497.36 153.52 497.76 151.72 497.76 149.56C497.76 145.96 496.6 143.4 494.28 141.88C492.04 140.28 489 139.48 485.16 139.48H477.24ZM483 127.24C486.76 127.24 489.6 126.44 491.52 124.84C493.44 123.16 494.4 120.88 494.4 118C494.4 116.24 494.12 114.84 493.56 113.8C493 112.68 492.24 111.84 491.28 111.28C490.32 110.64 489.2 110.24 487.92 110.08C486.64 109.84 485.32 109.72 483.96 109.72C482.84 109.72 481.68 109.76 480.48 109.84C479.28 109.92 478.2 110.04 477.24 110.2V127.24H483ZM534.24 134.8C534.24 138.4 534.36 141.8 534.6 145C534.92 148.12 535.48 150.84 536.28 153.16C537.16 155.48 538.36 157.32 539.88 158.68C541.4 160.04 543.44 160.72 546 160.72C548.48 160.72 550.48 160.04 552 158.68C553.6 157.32 554.8 155.48 555.6 153.16C556.48 150.76 557.04 148 557.28 144.88C557.6 141.76 557.76 138.4 557.76 134.8C557.76 131.2 557.6 127.84 557.28 124.72C557.04 121.52 556.48 118.76 555.6 116.44C554.8 114.12 553.64 112.28 552.12 110.92C550.6 109.56 548.56 108.88 546 108.88C543.44 108.88 541.4 109.56 539.88 110.92C538.36 112.28 537.16 114.16 536.28 116.56C535.48 118.88 534.92 121.6 534.6 124.72C534.36 127.84 534.24 131.2 534.24 134.8ZM519.24 134.8C519.24 122 521.6 112.36 526.32 105.88C531.04 99.32 537.6 96.04 546 96.04C554.72 96.04 561.36 99.32 565.92 105.88C570.48 112.36 572.76 122 572.76 134.8C572.76 147.6 570.44 157.28 565.8 163.84C561.16 170.32 554.6 173.56 546.12 173.56C537.4 173.56 530.72 170.32 526.08 163.84C521.52 157.28 519.24 147.6 519.24 134.8ZM633 97.72V109.96H613.44V172H598.56V109.96H579V97.72H633ZM642.48 172V159.76H658.68V109.96H642.48V97.72H689.64V109.96H673.56V159.76H689.64V172H642.48ZM731.52 173.56C721.04 173.56 713.04 170.2 707.52 163.48C702 156.76 699.24 147.2 699.24 134.8C699.24 128.64 700.08 123.16 701.76 118.36C703.44 113.56 705.76 109.52 708.72 106.24C711.76 102.88 715.32 100.36 719.4 98.68C723.56 96.92 728.08 96.04 732.96 96.04C735.6 96.04 737.96 96.28 740.04 96.76C742.2 97.16 744.08 97.64 745.68 98.2C747.28 98.76 748.6 99.36 749.64 100C750.76 100.64 751.6 101.12 752.16 101.44L748.32 113.2C746.48 112 744.24 111 741.6 110.2C739.04 109.32 736.08 108.88 732.72 108.88C730.4 108.88 728.12 109.32 725.88 110.2C723.72 111 721.76 112.4 720 114.4C718.32 116.32 716.92 118.92 715.8 122.2C714.76 125.48 714.24 129.56 714.24 134.44C714.24 142.92 715.68 149.44 718.56 154C721.52 158.48 726.32 160.72 732.96 160.72C736.8 160.72 739.96 160.28 742.44 159.4C745 158.52 747.04 157.64 748.56 156.76L752.28 168.4C750.2 169.68 747.36 170.88 743.76 172C740.24 173.04 736.16 173.56 731.52 173.56ZM783.84 161.2C786.32 161.2 788.36 160.96 789.96 160.48C791.64 159.92 792.96 159.2 793.92 158.32C794.88 157.36 795.52 156.32 795.84 155.2C796.24 154 796.44 152.8 796.44 151.6C796.44 150.08 796 148.72 795.12 147.52C794.24 146.32 793.12 145.28 791.76 144.4C790.4 143.44 788.88 142.6 787.2 141.88C785.52 141.08 783.84 140.36 782.16 139.72C779.92 138.92 777.6 138 775.2 136.96C772.8 135.92 770.6 134.6 768.6 133C766.68 131.4 765.08 129.44 763.8 127.12C762.52 124.72 761.88 121.76 761.88 118.24C761.88 111.28 764.12 105.84 768.6 101.92C773.16 98 779.4 96.04 787.32 96.04C791.88 96.04 795.84 96.56 799.2 97.6C802.64 98.64 805.52 99.8 807.84 101.08L803.52 112.48C801.52 111.36 799.28 110.4 796.8 109.6C794.4 108.8 791.6 108.4 788.4 108.4C780.56 108.4 776.64 111.24 776.64 116.92C776.64 118.36 777.04 119.64 777.84 120.76C778.64 121.8 779.64 122.76 780.84 123.64C782.12 124.44 783.52 125.16 785.04 125.8C786.64 126.44 788.2 127.04 789.72 127.6C792.04 128.48 794.44 129.48 796.92 130.6C799.48 131.64 801.8 133.08 803.88 134.92C806.04 136.68 807.8 138.92 809.16 141.64C810.52 144.28 811.2 147.64 811.2 151.72C811.2 158.68 808.92 164.08 804.36 167.92C799.88 171.68 793.04 173.56 783.84 173.56C777.68 173.56 772.76 172.92 769.08 171.64C765.4 170.28 762.64 169.04 760.8 167.92L765.12 155.92C767.28 157.2 769.84 158.4 772.8 159.52C775.84 160.64 779.52 161.2 783.84 161.2Z" fill="#213AD1"/>
<g clip-path="url(#clip0_7_61)">
<path d="M128 218.667C126.585 218.667 125.229 219.228 124.229 220.229C123.229 221.229 122.667 222.585 122.667 224C122.667 225.414 123.229 226.771 124.229 227.771C125.229 228.771 126.585 229.333 128 229.333C129.414 229.333 130.771 228.771 131.771 227.771C132.771 226.771 133.333 225.414 133.333 224C133.333 222.585 132.771 221.229 131.771 220.229C130.771 219.228 129.414 218.667 128 218.667Z" fill="#213AD1"/>
<path d="M180.427 192H75.5733C74.0929 191.995 72.6275 192.298 71.2705 192.889C69.9135 193.481 68.6946 194.349 67.6913 195.438C66.6879 196.526 65.9222 197.812 65.4428 199.213C64.9634 200.613 64.7808 202.098 64.9067 203.573L69.3333 256H186.667L191.04 203.573C191.165 202.103 190.984 200.622 190.508 199.225C190.032 197.828 189.271 196.545 188.273 195.457C187.276 194.37 186.063 193.501 184.713 192.906C183.362 192.31 181.903 192.002 180.427 192ZM128 240C124.835 240 121.742 239.062 119.111 237.304C116.48 235.545 114.429 233.047 113.218 230.123C112.007 227.199 111.69 223.982 112.307 220.879C112.925 217.775 114.449 214.924 116.686 212.686C118.924 210.449 121.775 208.925 124.879 208.308C127.982 207.69 131.199 208.007 134.123 209.218C137.047 210.429 139.545 212.48 141.303 215.111C143.062 217.742 144 220.836 144 224C144 228.244 142.314 232.313 139.314 235.314C136.313 238.314 132.243 240 128 240Z" fill="#213AD1"/>
<path d="M58.6667 80V133.333H48C45.1711 133.333 42.458 132.21 40.4576 130.209C38.4572 128.209 37.3334 125.496 37.3334 122.667V90.6667C37.3334 87.8377 38.4572 85.1246 40.4576 83.1242C42.458 81.1238 45.1711 80 48 80H58.6667Z" fill="#213AD1"/>
<path d="M218.667 90.6667V122.667C218.667 125.496 217.543 128.209 215.542 130.209C213.542 132.21 210.829 133.333 208 133.333H197.333V80H208C210.829 80 213.542 81.1238 215.542 83.1242C217.543 85.1246 218.667 87.8377 218.667 90.6667Z" fill="#213AD1"/>
<path d="M170.667 74.6665H85.3333C82.5043 74.6665 79.7912 75.7903 77.7908 77.7907C75.7904 79.7911 74.6666 82.5042 74.6666 85.3332V128C74.6666 130.829 75.7904 133.542 77.7908 135.542C79.7912 137.543 82.5043 138.667 85.3333 138.667H170.667C173.496 138.667 176.209 137.543 178.209 135.542C180.209 133.542 181.333 130.829 181.333 128V85.3332C181.333 82.5042 180.209 79.7911 178.209 77.7907C176.209 75.7903 173.496 74.6665 170.667 74.6665ZM101.333 106.667C99.2236 106.667 97.1613 106.041 95.4072 104.869C93.6531 103.697 92.2859 102.031 91.4786 100.082C90.6712 98.1327 90.46 95.988 90.8716 93.9189C91.2832 91.8497 92.2991 89.9491 93.7908 88.4574C95.2826 86.9656 97.1832 85.9497 99.2523 85.5381C101.321 85.1266 103.466 85.3378 105.415 86.1451C107.364 86.9525 109.03 88.3196 110.202 90.0738C111.374 91.8279 112 93.8902 112 95.9998C112 98.8288 110.876 101.542 108.876 103.542C106.875 105.543 104.162 106.667 101.333 106.667ZM138.667 128H117.333C115.919 128 114.562 127.438 113.562 126.438C112.562 125.438 112 124.081 112 122.667C112 121.252 112.562 119.895 113.562 118.895C114.562 117.895 115.919 117.333 117.333 117.333H138.667C140.081 117.333 141.438 117.895 142.438 118.895C143.438 119.895 144 121.252 144 122.667C144 124.081 143.438 125.438 142.438 126.438C141.438 127.438 140.081 128 138.667 128ZM154.667 106.667C152.557 106.667 150.495 106.041 148.741 104.869C146.986 103.697 145.619 102.031 144.812 100.082C144.005 98.1327 143.793 95.988 144.205 93.9189C144.616 91.8497 145.632 89.9491 147.124 88.4574C148.616 86.9656 150.517 85.9497 152.586 85.5381C154.655 85.1266 156.8 85.3378 158.749 86.1451C160.698 86.9525 162.364 88.3196 163.536 90.0738C164.708 91.8279 165.333 93.8902 165.333 95.9998C165.333 98.8288 164.209 101.542 162.209 103.542C160.209 105.543 157.496 106.667 154.667 106.667Z" fill="#213AD1"/>
<path d="M225.013 189.173C224.635 183.851 222.67 178.765 219.371 174.572C216.071 170.379 211.59 167.272 206.507 165.653L184.32 158.56C189.639 156.813 194.274 153.437 197.566 148.909C200.859 144.381 202.644 138.932 202.667 133.333V79.9999C202.668 73.8524 200.545 67.8933 196.658 63.1311C192.77 58.3688 187.357 55.096 181.333 53.8665V27.8399C183.65 25.7713 185.314 23.0732 186.123 20.0749C186.933 17.0765 186.852 13.9074 185.891 10.9543C184.93 8.00107 183.13 5.39143 180.711 3.44366C178.292 1.49589 175.358 0.2942 172.268 -0.0148231C169.178 -0.323846 166.065 0.273156 163.308 1.70336C160.551 3.13356 158.27 5.33514 156.743 8.03953C155.216 10.7439 154.51 13.8342 154.709 16.9334C154.909 20.0327 156.006 23.0069 157.867 25.4932L150.56 53.3332H105.44L98.1333 25.4932C99.9943 23.0069 101.091 20.0327 101.291 16.9334C101.49 13.8342 100.784 10.7439 99.2567 8.03953C97.7298 5.33514 95.4489 3.13356 92.6922 1.70336C89.9355 0.273156 86.8221 -0.323846 83.7318 -0.0148231C80.6416 0.2942 77.7081 1.49589 75.2892 3.44366C72.8702 5.39143 71.0705 8.00107 70.1094 10.9543C69.1483 13.9074 69.0674 17.0765 69.8766 20.0749C70.6859 23.0732 72.3502 25.7713 74.6666 27.8399V53.8665C68.6434 55.096 63.2299 58.3688 59.3423 63.1311C55.4548 67.8933 53.3321 73.8524 53.3333 79.9999V133.333C53.3562 138.932 55.1405 144.381 58.4335 148.909C61.7264 153.437 66.3608 156.813 71.68 158.56L49.44 165.653C44.3663 167.281 39.8967 170.392 36.6075 174.584C33.3184 178.776 31.3606 183.858 30.9866 189.173L26.6666 250.293C26.6153 251.024 26.7153 251.758 26.9602 252.449C27.2052 253.14 27.5899 253.773 28.0904 254.308C28.5908 254.844 29.1963 255.27 29.8689 255.561C30.5416 255.852 31.267 256.002 32 256H58.6666L57.8133 245.333H37.7067L41.6533 189.92C41.912 186.768 43.0988 183.764 45.0637 181.287C47.0286 178.809 49.6836 176.97 52.6933 176L97.5467 161.653L101.493 177.653C101.847 178.74 102.541 179.684 103.473 180.347C104.404 181.009 105.524 181.355 106.667 181.333H149.333C150.552 181.369 151.745 180.986 152.716 180.248C153.686 179.511 154.375 178.463 154.667 177.28L158.613 161.28L203.253 176C206.297 176.971 208.98 178.831 210.957 181.341C212.934 183.85 214.115 186.894 214.347 190.08L218.293 245.333H198.24L197.333 256C226.453 256 225.653 256.587 227.84 254.293C230.027 252 229.707 255.413 225.013 189.173ZM170.667 10.6665C172.081 10.6665 173.438 11.2284 174.438 12.2286C175.438 13.2288 176 14.5854 176 15.9999C176 17.4144 175.438 18.7709 174.438 19.7711C173.438 20.7713 172.081 21.3332 170.667 21.3332C169.252 21.3332 167.896 20.7713 166.895 19.7711C165.895 18.7709 165.333 17.4144 165.333 15.9999C165.333 14.5854 165.895 13.2288 166.895 12.2286C167.896 11.2284 169.252 10.6665 170.667 10.6665ZM167.253 31.6265C168.377 31.859 169.52 31.984 170.667 31.9999V53.3332H161.6L167.253 31.6265ZM85.3333 10.6665C86.7478 10.6665 88.1044 11.2284 89.1046 12.2286C90.1047 13.2288 90.6666 14.5854 90.6666 15.9999C90.6666 17.4144 90.1047 18.7709 89.1046 19.7711C88.1044 20.7713 86.7478 21.3332 85.3333 21.3332C83.9188 21.3332 82.5623 20.7713 81.5621 19.7711C80.5619 18.7709 80 17.4144 80 15.9999C80 14.5854 80.5619 13.2288 81.5621 12.2286C82.5623 11.2284 83.9188 10.6665 85.3333 10.6665V10.6665ZM94.4 53.3332H85.3333V31.9999C86.4804 31.984 87.6233 31.859 88.7466 31.6265L94.4 53.3332ZM145.173 170.667H110.827L108.16 160H147.84L145.173 170.667ZM80 149.333C75.7565 149.333 71.6869 147.648 68.6863 144.647C65.6857 141.646 64 137.577 64 133.333V79.9999C64 75.7564 65.6857 71.6868 68.6863 68.6862C71.6869 65.6856 75.7565 63.9999 80 63.9999H176C180.243 63.9999 184.313 65.6856 187.314 68.6862C190.314 71.6868 192 75.7564 192 79.9999V133.333C192 137.577 190.314 141.646 187.314 144.647C184.313 147.648 180.243 149.333 176 149.333H80Z" fill="#020202"/>
</g>
<defs>
<clipPath id="clip0_7_61">
<rect width="256" height="256" fill="white"/>
</clipPath>
</defs>
</svg>
